<svg xmlns="http://www.w3.org/2000/svg" width="72" height="72" fill="none" viewBox="0 0 72 72"><path fill="#E7EBF0" d="M36 72C55.8823 72 72 55.8823 72 36C72 16.1177 55.8823 0 36 0C16.1177 0 0 16.1177 0 36C0 55.8823 16.1177 72 36 72Z"/><g opacity=".33"><path fill="#000" d="M48 45.3333V26.6667C48 25.2 46.8 24 45.3333 24H26.6667C25.2 24 24 25.2 24 26.6667V45.3333C24 46.8 25.2 48 26.6667 48H45.3333C46.8 48 48 46.8 48 45.3333ZM31.3333 38L34.6667 42.0133L39.3333 36L45.3333 44H26.6667L31.3333 38Z"/></g></svg>